<svg width="18" height="18" viewBox="0 0 18 18" fill="none" xmlns="http://www.w3.org/2000/svg">
<path d="M12.5235 16.497H3.82353C3.51632 16.4983 3.21198 16.4379 2.92855 16.3194C2.64512 16.2008 2.38837 16.0266 2.17353 15.807C1.9571 15.589 1.78601 15.3303 1.67016 15.0458C1.5543 14.7613 1.49597 14.4567 1.49853 14.1495V5.45702C1.4947 5.15123 1.55324 4.84787 1.67059 4.56547C1.78793 4.28306 1.96162 4.02755 2.18103 3.81452C2.39451 3.59807 2.64965 3.42713 2.93103 3.31202C3.21609 3.19281 3.52205 3.13162 3.83103 3.13202H7.16103C7.31021 3.13202 7.45329 3.19128 7.55878 3.29677C7.66427 3.40226 7.72353 3.54534 7.72353 3.69452C7.72353 3.84371 7.66427 3.98678 7.55878 4.09227C7.45329 4.19776 7.31021 4.25702 7.16103 4.25702H3.83103C3.66971 4.26141 3.51016 4.2918 3.35853 4.34702C3.13754 4.4403 2.9491 4.59691 2.81697 4.79711C2.68483 4.99732 2.61492 5.23215 2.61603 5.47202V14.1645C2.61415 14.3257 2.64435 14.4856 2.70487 14.6349C2.76538 14.7843 2.85501 14.9201 2.96853 15.0345C3.08203 15.1471 3.21664 15.2362 3.36465 15.2967C3.51265 15.3572 3.67114 15.3879 3.83103 15.387H12.531C12.6908 15.387 12.8483 15.357 12.996 15.297C13.1431 15.238 13.276 15.1485 13.386 15.0345C13.5 14.9245 13.5895 14.7916 13.6485 14.6445C13.7148 14.4959 13.7481 14.3347 13.746 14.172V10.842C13.746 10.6928 13.8053 10.5498 13.9108 10.4443C14.0163 10.3388 14.1593 10.2795 14.3085 10.2795C14.4577 10.2795 14.6008 10.3388 14.7063 10.4443C14.8118 10.5498 14.871 10.6928 14.871 10.842V14.1945C14.8723 14.5017 14.8119 14.8061 14.6934 15.0895C14.5748 15.3729 14.4006 15.6297 14.181 15.8445C13.9657 16.0606 13.7112 16.2337 13.431 16.3545C13.1408 16.4595 12.8325 16.5083 12.5235 16.497Z" fill="#55A938"/>
<path d="M16.356 4.092C16.2796 3.89889 16.1618 3.72483 16.011 3.582L14.3985 1.9695C14.2557 1.81871 14.0816 1.70096 13.8885 1.6245C13.5983 1.50223 13.2782 1.46975 12.9694 1.53125C12.6605 1.59274 12.3772 1.7454 12.156 1.9695L10.8735 3.252V3.2895L5.06852 9.087C4.77545 9.38209 4.61099 9.78111 4.61102 10.197V11.8245C4.613 12.2436 4.78036 12.645 5.07671 12.9413C5.37306 13.2377 5.77443 13.405 6.19352 13.407H7.82102C8.02768 13.4073 8.23231 13.3663 8.42291 13.2864C8.61352 13.2066 8.78626 13.0895 8.93102 12.942L14.736 7.137L16.026 5.847C16.1775 5.7045 16.296 5.5305 16.371 5.337C16.4569 5.14465 16.5012 4.93638 16.5012 4.72575C16.5012 4.51512 16.4569 4.30685 16.371 4.1145L16.356 4.092ZM15.321 4.8795C15.2967 4.93617 15.2609 4.98723 15.216 5.0295L14.301 5.9445L12.051 3.6945L12.9735 2.772C13.0621 2.6863 13.1803 2.63796 13.3035 2.637C13.3629 2.63799 13.4216 2.65074 13.476 2.6745C13.534 2.699 13.584 2.734 13.626 2.7795L15.246 4.392C15.2869 4.43606 15.3198 4.48679 15.3435 4.542C15.3546 4.59896 15.3546 4.65754 15.3435 4.7145C15.3464 4.77042 15.3387 4.82638 15.321 4.8795Z" fill="#55A938"/>
</svg>
