<svg width="13" height="13" viewBox="0 0 13 13" fill="none" xmlns="http://www.w3.org/2000/svg">
<path d="M12.356 3.092C12.2796 2.89889 12.1618 2.72483 12.011 2.582L10.3985 0.969503C10.2557 0.81871 10.0816 0.700962 9.88852 0.624503C9.59834 0.502231 9.27818 0.469748 8.96935 0.531245C8.66053 0.592743 8.37723 0.745398 8.15602 0.969503L6.87352 2.252V2.2895L1.06852 8.087C0.775452 8.38209 0.61099 8.78111 0.611023 9.197V10.8245C0.612995 11.2436 0.780356 11.645 1.07671 11.9413C1.37306 12.2377 1.77443 12.405 2.19352 12.407H3.82102C4.02768 12.4073 4.23231 12.3663 4.42291 12.2864C4.61352 12.2066 4.78626 12.0895 4.93102 11.942L10.736 6.137L12.026 4.847C12.1775 4.7045 12.296 4.5305 12.371 4.337C12.4569 4.14465 12.5012 3.93638 12.5012 3.72575C12.5012 3.51512 12.4569 3.30685 12.371 3.1145L12.356 3.092ZM11.321 3.8795C11.2967 3.93617 11.2609 3.98723 11.216 4.0295L10.301 4.9445L8.05102 2.6945L8.97352 1.772C9.06211 1.6863 9.18027 1.63796 9.30352 1.637C9.36294 1.63799 9.42156 1.65074 9.47602 1.6745C9.53402 1.699 9.58402 1.734 9.62602 1.7795L11.246 3.392C11.2869 3.43606 11.3198 3.48679 11.3435 3.542C11.3546 3.59896 11.3546 3.65754 11.3435 3.7145C11.3464 3.77042 11.3387 3.82638 11.321 3.8795Z" fill="#55A938"/>
</svg>
